# xmcd
#
# Track frame offsets:
#	182
#	10640
#	28397
#	49620
#	66087
#
# Disc length: 1027 seconds
#
# Revision: 0
# Processed by: cddbd v1.5.2PL0 Copyright (c) Steve Scherf et al.
# Submitted via: EasyCDDAExtractor 10.0.3.1
#
DISCID=38040105
DTITLE=Various Artist - POMATON EMI
DYEAR=1900
DGENRE=
TTITLE0=MAANAM - Nic Dwa Razy
TTITLE1=T.LOVE - Bóg
TTITLE2=ELŻBIETA ADAMIAK - Atlantyda
TTITLE3=ANTONINA KRZYSZTOŃ - Salome
TTITLE4=MAGDA UMER - Już Szumią Kasztany
EXTD=
EXTT0=
EXTT1=
EXTT2=
EXTT3=
EXTT4=
PLAYORDER=
